<?xml version="1.0" encoding="UTF-8"?>
<svg xmlns="http://www.w3.org/2000/svg" xmlns:xlink="http://www.w3.org/1999/xlink" width="32pt" height="31pt" viewBox="0 0 32 31" version="1.1">
<g id="surface1">
<path style=" stroke:none;fill-rule:nonzero;fill:rgb(63.921569%,36.470588%,9.019608%);fill-opacity:1;" d="M 6.316406 26.871094 C 5.597656 27.566406 4.46875 27.566406 3.800781 26.871094 C 3.082031 26.171875 3.082031 25.078125 3.800781 24.433594 L 16.640625 11.992188 C 17.359375 11.296875 18.492188 11.296875 19.160156 11.992188 C 19.878906 12.6875 19.878906 13.785156 19.160156 14.429688 Z M 6.316406 26.871094 "/>
<path style=" stroke:none;fill-rule:nonzero;fill:rgb(41.960784%,25.098039%,4.705882%);fill-opacity:1;" d="M 19.160156 11.992188 C 19.878906 12.6875 19.878906 13.785156 19.160156 14.429688 L 6.316406 26.871094 C 5.597656 27.566406 4.46875 27.566406 3.800781 26.871094 "/>
<path style=" stroke:none;fill-rule:nonzero;fill:rgb(95.686275%,67.843137%,19.215686%);fill-opacity:1;" d="M 5.957031 29.953125 C 5.136719 30.75 3.851562 30.75 3.03125 29.953125 L 0.617188 27.617188 C -0.207031 26.820312 -0.207031 25.578125 0.617188 24.78125 C 1.4375 23.984375 2.722656 23.984375 3.542969 24.78125 L 5.957031 27.117188 C 6.78125 27.914062 6.78125 29.160156 5.957031 29.953125 Z M 5.957031 29.953125 "/>
<path style=" stroke:none;fill-rule:nonzero;fill:rgb(86.666667%,50.980392%,3.921569%);fill-opacity:1;" d="M 3.542969 24.78125 L 5.957031 27.117188 C 6.78125 27.914062 6.78125 29.160156 5.957031 29.953125 C 5.136719 30.75 3.851562 30.75 3.03125 29.953125 "/>
<path style=" stroke:none;fill-rule:nonzero;fill:rgb(95.686275%,67.843137%,19.215686%);fill-opacity:1;" d="M 27.429688 16.621094 C 25.269531 18.710938 22.960938 17.566406 20.800781 15.476562 L 15.511719 10.351562 C 13.355469 8.261719 12.226562 6.019531 14.332031 3.929688 L 15.253906 3.035156 C 17.414062 0.945312 19.722656 2.089844 21.882812 4.179688 L 27.171875 9.304688 C 29.328125 11.394531 30.460938 13.632812 28.351562 15.722656 Z M 27.429688 16.621094 "/>
<path style=" stroke:none;fill-rule:nonzero;fill:rgb(86.666667%,50.980392%,3.921569%);fill-opacity:1;" d="M 21.882812 4.230469 L 27.171875 9.355469 C 29.328125 11.445312 30.460938 13.683594 28.351562 15.773438 L 27.429688 16.667969 C 25.269531 18.757812 22.960938 17.613281 20.800781 15.523438 "/>
<path style=" stroke:none;fill-rule:nonzero;fill:rgb(95.686275%,67.843137%,19.215686%);fill-opacity:1;" d="M 13.199219 7.5625 C 12.789062 7.960938 12.121094 7.960938 11.710938 7.5625 C 11.300781 7.164062 11.300781 6.519531 11.710938 6.121094 L 17.464844 0.496094 C 17.875 0.0976562 18.542969 0.0976562 18.953125 0.496094 C 19.363281 0.894531 19.363281 1.542969 18.953125 1.941406 Z M 13.199219 7.5625 "/>
<path style=" stroke:none;fill-rule:nonzero;fill:rgb(86.666667%,50.980392%,3.921569%);fill-opacity:1;" d="M 18.953125 0.496094 C 19.363281 0.894531 19.363281 1.542969 18.953125 1.941406 L 13.199219 7.5625 C 12.789062 7.960938 12.121094 7.960938 11.710938 7.5625 "/>
<path style=" stroke:none;fill-rule:nonzero;fill:rgb(95.686275%,67.843137%,19.215686%);fill-opacity:1;" d="M 25.21875 19.207031 C 24.808594 19.605469 24.140625 19.605469 23.730469 19.207031 C 23.320312 18.808594 23.320312 18.164062 23.730469 17.765625 L 29.484375 12.191406 C 29.894531 11.792969 30.5625 11.792969 30.972656 12.191406 C 31.382812 12.589844 31.382812 13.234375 30.972656 13.632812 Z M 25.21875 19.207031 "/>
<path style=" stroke:none;fill-rule:nonzero;fill:rgb(86.666667%,50.980392%,3.921569%);fill-opacity:1;" d="M 31.023438 12.191406 C 31.433594 12.589844 31.433594 13.234375 31.023438 13.632812 L 25.21875 19.207031 C 24.808594 19.605469 24.140625 19.605469 23.730469 19.207031 "/>
<path style=" stroke:none;fill-rule:nonzero;fill:rgb(86.666667%,50.980392%,3.921569%);fill-opacity:1;" d="M 19.878906 15.773438 C 19.519531 16.121094 18.902344 16.121094 18.542969 15.773438 L 15.304688 12.640625 C 14.945312 12.289062 14.945312 11.695312 15.304688 11.34375 C 15.667969 10.996094 16.28125 10.996094 16.640625 11.34375 L 19.878906 14.480469 C 20.238281 14.828125 20.238281 15.425781 19.878906 15.773438 Z M 19.878906 15.773438 "/>
<path style=" stroke:none;fill-rule:nonzero;fill:rgb(82.745098%,16.470588%,5.882353%);fill-opacity:1;" d="M 20.648438 25.328125 L 31.433594 25.328125 L 31.433594 29.804688 L 20.648438 29.804688 Z M 20.648438 25.328125 "/>
<path style=" stroke:none;fill-rule:nonzero;fill:rgb(68.627451%,9.803922%,3.529412%);fill-opacity:1;" d="M 20.648438 25.328125 L 31.433594 25.328125 L 31.433594 29.804688 "/>
<path style=" stroke:none;fill-rule:nonzero;fill:rgb(68.627451%,9.803922%,3.529412%);fill-opacity:1;" d="M 31.949219 30.402344 C 31.949219 30.601562 31.792969 30.800781 31.539062 30.800781 L 20.546875 30.800781 C 20.339844 30.800781 20.136719 30.652344 20.136719 30.402344 L 20.136719 30.152344 C 20.136719 29.953125 20.289062 29.757812 20.546875 29.757812 L 31.589844 29.757812 C 31.792969 29.757812 32 29.90625 32 30.152344 L 32 30.402344 Z M 31.949219 30.402344 "/>
<path style=" stroke:none;fill-rule:nonzero;fill:rgb(68.627451%,9.803922%,3.529412%);fill-opacity:1;" d="M 31.949219 24.929688 C 31.949219 25.128906 31.792969 25.328125 31.539062 25.328125 L 20.546875 25.328125 C 20.339844 25.328125 20.136719 25.179688 20.136719 24.929688 L 20.136719 24.679688 C 20.136719 24.480469 20.289062 24.28125 20.546875 24.28125 L 31.589844 24.28125 C 31.792969 24.28125 32 24.433594 32 24.679688 L 32 24.929688 Z M 31.949219 24.929688 "/>
</g>
</svg>
