<?xml version="1.0" encoding="UTF-8"?>
<svg xmlns="http://www.w3.org/2000/svg" xmlns:xlink="http://www.w3.org/1999/xlink" width="50pt" height="50pt" viewBox="0 0 50 50" version="1.1">
<g id="surface1">
<path style=" stroke:none;fill-rule:nonzero;fill:rgb(63.921569%,36.470588%,9.019608%);fill-opacity:1;" d="M 9.871094 43.339844 C 8.746094 44.460938 6.980469 44.460938 5.9375 43.339844 C 4.816406 42.214844 4.816406 40.449219 5.9375 39.40625 L 26.003906 19.34375 C 27.125 18.21875 28.890625 18.21875 29.9375 19.34375 C 31.058594 20.464844 31.058594 22.230469 29.9375 23.273438 Z M 9.871094 43.339844 "/>
<path style=" stroke:none;fill-rule:nonzero;fill:rgb(41.960784%,25.098039%,4.705882%);fill-opacity:1;" d="M 29.9375 19.34375 C 31.058594 20.464844 31.058594 22.230469 29.9375 23.273438 L 9.871094 43.339844 C 8.746094 44.460938 6.980469 44.460938 5.9375 43.339844 "/>
<path style=" stroke:none;fill-rule:nonzero;fill:rgb(95.686275%,67.843137%,19.215686%);fill-opacity:1;" d="M 9.308594 48.316406 C 8.027344 49.597656 6.019531 49.597656 4.734375 48.316406 L 0.964844 44.542969 C -0.320312 43.257812 -0.320312 41.253906 0.964844 39.96875 C 2.246094 38.683594 4.253906 38.683594 5.539062 39.96875 L 9.308594 43.738281 C 10.59375 45.023438 10.59375 47.03125 9.308594 48.316406 Z M 9.308594 48.316406 "/>
<path style=" stroke:none;fill-rule:nonzero;fill:rgb(86.666667%,50.980392%,3.921569%);fill-opacity:1;" d="M 5.539062 39.96875 L 9.308594 43.738281 C 10.59375 45.023438 10.59375 47.03125 9.308594 48.316406 C 8.027344 49.597656 6.019531 49.597656 4.734375 48.316406 "/>
<path style=" stroke:none;fill-rule:nonzero;fill:rgb(95.686275%,67.843137%,19.215686%);fill-opacity:1;" d="M 42.855469 26.804688 C 39.488281 30.175781 35.875 28.332031 32.503906 24.960938 L 24.238281 16.695312 C 20.867188 13.324219 19.101562 9.710938 22.390625 6.339844 L 23.835938 4.894531 C 27.207031 1.523438 30.820312 3.371094 34.1875 6.742188 L 42.457031 15.007812 C 45.828125 18.378906 47.59375 21.992188 44.300781 25.359375 Z M 42.855469 26.804688 "/>
<path style=" stroke:none;fill-rule:nonzero;fill:rgb(86.666667%,50.980392%,3.921569%);fill-opacity:1;" d="M 34.1875 6.820312 L 42.457031 15.089844 C 45.828125 18.460938 47.59375 22.070312 44.300781 25.441406 L 42.855469 26.886719 C 39.488281 30.257812 35.875 28.410156 32.503906 25.039062 "/>
<path style=" stroke:none;fill-rule:nonzero;fill:rgb(95.686275%,67.843137%,19.215686%);fill-opacity:1;" d="M 20.625 12.199219 C 19.984375 12.839844 18.941406 12.839844 18.296875 12.199219 C 17.65625 11.558594 17.65625 10.511719 18.296875 9.871094 L 27.289062 0.800781 C 27.929688 0.160156 28.972656 0.160156 29.613281 0.800781 C 30.257812 1.445312 30.257812 2.488281 29.613281 3.128906 Z M 20.625 12.199219 "/>
<path style=" stroke:none;fill-rule:nonzero;fill:rgb(86.666667%,50.980392%,3.921569%);fill-opacity:1;" d="M 29.613281 0.800781 C 30.257812 1.445312 30.257812 2.488281 29.613281 3.128906 L 20.625 12.199219 C 19.984375 12.839844 18.941406 12.839844 18.296875 12.199219 "/>
<path style=" stroke:none;fill-rule:nonzero;fill:rgb(95.686275%,67.843137%,19.215686%);fill-opacity:1;" d="M 39.40625 30.980469 C 38.765625 31.621094 37.722656 31.621094 37.078125 30.980469 C 36.4375 30.335938 36.4375 29.292969 37.078125 28.652344 L 46.066406 19.664062 C 46.710938 19.019531 47.753906 19.019531 48.394531 19.664062 C 49.035156 20.304688 49.035156 21.347656 48.394531 21.992188 Z M 39.40625 30.980469 "/>
<path style=" stroke:none;fill-rule:nonzero;fill:rgb(86.666667%,50.980392%,3.921569%);fill-opacity:1;" d="M 48.476562 19.664062 C 49.117188 20.304688 49.117188 21.347656 48.476562 21.992188 L 39.40625 30.980469 C 38.765625 31.621094 37.722656 31.621094 37.078125 30.980469 "/>
<path style=" stroke:none;fill-rule:nonzero;fill:rgb(86.666667%,50.980392%,3.921569%);fill-opacity:1;" d="M 31.058594 25.441406 C 30.496094 26.003906 29.535156 26.003906 28.972656 25.441406 L 23.917969 20.386719 C 23.355469 19.824219 23.355469 18.859375 23.917969 18.296875 C 24.476562 17.738281 25.441406 17.738281 26.003906 18.296875 L 31.058594 23.355469 C 31.621094 23.917969 31.621094 24.878906 31.058594 25.441406 Z M 31.058594 25.441406 "/>
<path style=" stroke:none;fill-rule:nonzero;fill:rgb(82.745098%,16.470588%,5.882353%);fill-opacity:1;" d="M 32.261719 40.851562 L 49.117188 40.851562 L 49.117188 48.074219 L 32.261719 48.074219 Z M 32.261719 40.851562 "/>
<path style=" stroke:none;fill-rule:nonzero;fill:rgb(68.627451%,9.803922%,3.529412%);fill-opacity:1;" d="M 32.261719 40.851562 L 49.117188 40.851562 L 49.117188 48.074219 "/>
<path style=" stroke:none;fill-rule:nonzero;fill:rgb(68.627451%,9.803922%,3.529412%);fill-opacity:1;" d="M 49.917969 49.035156 C 49.917969 49.359375 49.679688 49.679688 49.277344 49.679688 L 32.101562 49.679688 C 31.78125 49.679688 31.460938 49.4375 31.460938 49.035156 L 31.460938 48.636719 C 31.460938 48.316406 31.703125 47.992188 32.101562 47.992188 L 49.359375 47.992188 C 49.679688 47.992188 50 48.234375 50 48.636719 L 50 49.035156 Z M 49.917969 49.035156 "/>
<path style=" stroke:none;fill-rule:nonzero;fill:rgb(68.627451%,9.803922%,3.529412%);fill-opacity:1;" d="M 49.917969 40.207031 C 49.917969 40.53125 49.679688 40.851562 49.277344 40.851562 L 32.101562 40.851562 C 31.78125 40.851562 31.460938 40.609375 31.460938 40.207031 L 31.460938 39.808594 C 31.460938 39.488281 31.703125 39.164062 32.101562 39.164062 L 49.359375 39.164062 C 49.679688 39.164062 50 39.40625 50 39.808594 L 50 40.207031 Z M 49.917969 40.207031 "/>
</g>
</svg>
