<?xml version="1.0" encoding="UTF-8"?>
<svg xmlns="http://www.w3.org/2000/svg" xmlns:xlink="http://www.w3.org/1999/xlink" width="50pt" height="50pt" viewBox="0 0 50 50" version="1.1">
<g id="surface1">
<path style=" stroke:none;fill-rule:nonzero;fill:rgb(0%,0%,0%);fill-opacity:1;" d="M 34.25 33.320312 C 34.25 35.835938 36.289062 37.875 38.804688 37.875 C 41.320312 37.875 43.359375 35.835938 43.359375 33.320312 C 43.359375 30.804688 41.320312 28.765625 38.804688 28.765625 C 36.285156 28.765625 34.25 30.804688 34.25 33.320312 Z M 35.734375 33.320312 C 35.734375 31.625 37.109375 30.253906 38.800781 30.253906 C 40.488281 30.253906 41.863281 31.628906 41.863281 33.320312 C 41.863281 35.011719 40.488281 36.386719 38.800781 36.386719 C 37.109375 36.386719 35.734375 35.015625 35.734375 33.320312 Z M 4.570312 33.320312 C 4.570312 35.835938 6.609375 37.875 9.125 37.875 C 11.640625 37.875 13.679688 35.835938 13.679688 33.320312 C 13.679688 30.804688 11.640625 28.765625 9.125 28.765625 C 6.609375 28.765625 4.570312 30.804688 4.570312 33.320312 Z M 6.058594 33.320312 C 6.058594 31.625 7.433594 30.253906 9.125 30.253906 C 10.820312 30.253906 12.191406 31.628906 12.191406 33.320312 C 12.191406 35.011719 10.816406 36.386719 9.125 36.386719 C 7.429688 36.386719 6.058594 35.015625 6.058594 33.320312 Z M 0.585938 25.070312 C 0.460938 26.875 0.503906 29.34375 0.515625 30.800781 C 0.699219 32.761719 1.296875 33.320312 3.535156 33.933594 C 3.875 27.714844 9.035156 27.054688 11.445312 28.136719 C 15.035156 29.738281 14.890625 33.894531 14.890625 33.894531 L 33.046875 33.894531 C 33.046875 33.894531 32.765625 30.578125 35.640625 28.570312 C 38.46875 26.589844 44.324219 28.054688 44.148438 33.894531 C 45.824219 34.628906 51.171875 33.78125 48.984375 25.601562 C 48.070312 23.019531 46.289062 23.980469 39.085938 21.835938 C 35.855469 20.875 35.203125 17.375 29.90625 13.140625 C 28.671875 12.15625 26.226562 12.128906 24.824219 12.125 C 14.441406 12.101562 8.335938 16.605469 4.214844 21.269531 C 2.214844 22.195312 1.125 23.566406 0.585938 25.070312 Z M 45.453125 27.808594 C 45.28125 27.550781 45.320312 27.15625 45.453125 26.769531 L 48.453125 26.769531 C 48.453125 26.769531 48.96875 27.734375 48.414062 29.285156 C 47.738281 29.308594 46.710938 29.65625 45.453125 27.808594 Z M 21.878906 21.796875 L 21.878906 14.203125 C 21.878906 14.203125 27.214844 12.980469 28.398438 14.164062 C 29.578125 15.34375 34.820312 20.515625 34.898438 20.691406 C 34.980469 20.863281 35.296875 21.425781 34.898438 21.796875 Z M 8.894531 20.320312 C 13.773438 15.429688 18.691406 14.753906 18.691406 14.753906 L 18.691406 21.375 L 18.394531 21.796875 C 18.394531 21.796875 10.023438 21.710938 9.359375 21.710938 C 8.695312 21.710938 8.53125 20.683594 8.894531 20.320312 Z M 0.960938 25.378906 L 3.621094 25.378906 C 3.253906 27.320312 1.84375 27.683594 1.84375 27.683594 L 0.960938 27.683594 Z M 0.960938 25.378906 "/>
</g>
</svg>
